# xmcd
#
# Track frame offsets:
# 183
# 16928
# 34453
# 42550
# 60968
# 73058
# 86145
# 99158
# 115425
# 125383
# 139683
# 153078
# 164008
#
# Disc length: 2447 seconds
#
#
# Revision: 0
# Processed by: cddbd v1.5.2PL0 Copyright (c) Steve Scherf et al.
# Submitted via: FreeRIP 2.942 
#
DISCID=ae098d0d
DTITLE=Shawn - Everywhere I go
DYEAR=1900
DGENRE=Country
TTITLE0=01-Baby when Im gone
TTITLE1=02-Everywhere I go
TTITLE2=03-Great balls of fire
TTITLE3=04-Never be another you
TTITLE4=05-I bend bit I dont break
TTITLE5=06-Please dont stop lovin me
TTITLE6=07-Baby what I say
TTITLE7=07-Baby what I say
TTITLE8=09-Since me baby
TTITLE9=10-Cant believe its true
TTITLE10=11-My old pony and I
TTITLE11=12-Time goes by so slowly
TTITLE12=13-Elvis Boggie
EXTD=
EXTT0=
EXTT1=
EXTT2=
EXTT3=
EXTT4=
EXTT5=
EXTT6=
EXTT7=
EXTT8=
EXTT9=
EXTT10=
EXTT11=
EXTT12=
PLAYORDER=
